<svg width="190" height="58" viewBox="0 0 190 58" fill="none" xmlns="http://www.w3.org/2000/svg">
<path d="M12.584 21.0522C10.1803 21.0522 10.5102 24.1364 12.584 24.1364H25.4979C27.2889 24.1364 27.2418 21.3369 25.4979 21.0522H12.584Z" fill="white"/>
<path fill-rule="evenodd" clip-rule="evenodd" d="M31.3894 9H12.584C4.25476 9.64598 0.937953 11.4848 0 20.1981V35.1922C0.161845 44.4848 2.83171 47.5777 12.584 49H31.3894C40.8156 48.4306 43.832 43.4958 43.832 34.7177C45.3267 33.8353 45.8492 33.1746 46 31.586V26.4614C45.9823 24.8718 45.5298 24.1607 43.8791 23.2349C43.8791 13.2705 38.7889 9 31.3894 9ZM31.3894 45.4887C38.6173 44.7403 40.8641 42.7137 40.4857 35.1922C33.0597 35.4937 30.0569 29.269 33.3186 25.5125C34.9254 23.6619 37.0922 22.7604 40.4857 22.7604C40.8685 14.9754 38.6247 12.9734 31.3894 12.5113H12.584C7.02242 12.4092 4.76356 13.7165 3.34632 20.1981V35.1922C3.14472 42.0372 5.09734 44.3418 12.584 45.4887H31.3894ZM42.7008 31.586V26.4614H37.6107C34.4529 26.4614 34.7357 31.586 37.6107 31.586H42.7008Z" fill="white"/>
<path d="M59.008 40V17.6H63.168V40H59.008ZM78.5388 22.72C79.9041 22.72 81.1201 22.9867 82.1868 23.52C83.2748 24.0533 84.1281 24.8747 84.7468 25.984C85.3654 27.072 85.6748 28.48 85.6748 30.208V40H81.6748V30.72C81.6748 29.2053 81.3121 28.0747 80.5868 27.328C79.8828 26.5813 78.8908 26.208 77.6108 26.208C76.6721 26.208 75.8401 26.4 75.1148 26.784C74.3894 27.168 73.8241 27.744 73.4188 28.512C73.0348 29.2587 72.8428 30.208 72.8428 31.36V40H68.8428V22.912H72.6508V27.52L71.9788 26.112C72.5761 25.024 73.4401 24.192 74.5708 23.616C75.7228 23.0187 77.0454 22.72 78.5388 22.72ZM94.941 27.904H106.109V31.424H94.941V27.904ZM95.293 40H91.133V17.6H107.485V21.088H95.293V40ZM117.887 40.224C116.437 40.224 115.157 39.9573 114.047 39.424C112.938 38.8693 112.074 38.0373 111.455 36.928C110.837 35.7973 110.527 34.3787 110.527 32.672V22.912H114.527V32.128C114.527 33.664 114.869 34.816 115.551 35.584C116.255 36.3307 117.247 36.704 118.527 36.704C119.466 36.704 120.277 36.512 120.959 36.128C121.663 35.744 122.207 35.168 122.591 34.4C122.997 33.632 123.199 32.6827 123.199 31.552V22.912H127.199V40H123.391V35.392L124.063 36.8C123.487 37.9093 122.645 38.7627 121.535 39.36C120.426 39.936 119.21 40.224 117.887 40.224ZM137.717 40.224C136.287 40.224 134.911 40.0427 133.589 39.68C132.287 39.296 131.253 38.8373 130.485 38.304L132.021 35.264C132.789 35.7547 133.706 36.16 134.773 36.48C135.839 36.8 136.906 36.96 137.973 36.96C139.231 36.96 140.138 36.7893 140.693 36.448C141.269 36.1067 141.557 35.648 141.557 35.072C141.557 34.6027 141.365 34.2507 140.981 34.016C140.597 33.76 140.095 33.568 139.477 33.44C138.858 33.312 138.165 33.1947 137.397 33.088C136.65 32.9813 135.893 32.8427 135.125 32.672C134.378 32.48 133.695 32.2133 133.077 31.872C132.458 31.5093 131.957 31.0293 131.573 30.432C131.189 29.8347 130.997 29.0453 130.997 28.064C130.997 26.976 131.306 26.0373 131.924 25.248C132.543 24.4373 133.407 23.8187 134.516 23.392C135.647 22.944 136.981 22.72 138.517 22.72C139.669 22.72 140.831 22.848 142.005 23.104C143.178 23.36 144.149 23.7227 144.917 24.192L143.381 27.232C142.57 26.7413 141.749 26.4107 140.917 26.24C140.106 26.048 139.295 25.952 138.485 25.952C137.269 25.952 136.362 26.1333 135.765 26.496C135.189 26.8587 134.901 27.3173 134.901 27.872C134.901 28.384 135.093 28.768 135.477 29.024C135.861 29.28 136.362 29.4827 136.981 29.632C137.599 29.7813 138.282 29.9093 139.029 30.016C139.797 30.1013 140.554 30.24 141.301 30.432C142.047 30.624 142.73 30.8907 143.349 31.232C143.989 31.552 144.501 32.0107 144.885 32.608C145.269 33.2053 145.461 33.984 145.461 34.944C145.461 36.0107 145.141 36.9387 144.501 37.728C143.882 38.5173 142.997 39.136 141.845 39.584C140.693 40.0107 139.317 40.224 137.717 40.224ZM156.937 40.224C155.039 40.224 153.375 39.8507 151.945 39.104C150.537 38.336 149.439 37.2907 148.649 35.968C147.881 34.6453 147.497 33.1413 147.497 31.456C147.497 29.7493 147.871 28.2453 148.617 26.944C149.385 25.6213 150.431 24.5867 151.753 23.84C153.097 23.0933 154.623 22.72 156.329 22.72C157.993 22.72 159.476 23.0827 160.777 23.808C162.079 24.5333 163.103 25.5573 163.849 26.88C164.596 28.2027 164.969 29.76 164.969 31.552C164.969 31.7227 164.959 31.9147 164.937 32.128C164.937 32.3413 164.927 32.544 164.905 32.736H150.665V30.08H162.793L161.225 30.912C161.247 29.9307 161.044 29.0667 160.617 28.32C160.191 27.5733 159.604 26.9867 158.857 26.56C158.132 26.1333 157.289 25.92 156.329 25.92C155.348 25.92 154.484 26.1333 153.737 26.56C153.012 26.9867 152.436 27.584 152.009 28.352C151.604 29.0987 151.401 29.984 151.401 31.008V31.648C151.401 32.672 151.636 33.5787 152.105 34.368C152.575 35.1573 153.236 35.7653 154.089 36.192C154.943 36.6187 155.924 36.832 157.033 36.832C157.993 36.832 158.857 36.6827 159.625 36.384C160.393 36.0853 161.076 35.616 161.673 34.976L163.817 37.44C163.049 38.336 162.079 39.0293 160.905 39.52C159.753 39.9893 158.431 40.224 156.937 40.224Z" fill="white"/>
</svg>
